<svg width="197.000000" height="31.000000" viewBox="0 0 197 31" fill="none" xmlns="http://www.w3.org/2000/svg" xmlns:xlink="http://www.w3.org/1999/xlink">
	<desc>
			Created with Pixso.
	</desc>
	<defs>
		<clipPath id="clip4_3734">
			<rect id="logo" rx="0.000000" width="196.000000" height="30.000000" transform="translate(0.500000 0.500000)" fill="white" fill-opacity="0"/>
		</clipPath>
	</defs>
	<rect id="logo" rx="0.000000" width="196.000000" height="30.000000" transform="translate(0.500000 0.500000)" fill="#FFFFFF" fill-opacity="0"/>
	<g clip-path="url(#clip4_3734)">
		<path id="Vector" d="M20.01 0C22.69 0 24.99 0.22 26.92 0.68C28.87 1.1 30.53 1.69 31.88 2.44C33.26 3.19 34.38 4.07 35.23 5.08C36.07 6.07 36.73 7.11 37.2 8.21C37.69 9.3 38.02 10.42 38.19 11.57C38.36 12.69 38.44 13.77 38.44 14.81L38.44 16.02C38.44 17.03 38.36 18.11 38.19 19.26C38.02 20.38 37.69 21.5 37.2 22.62C36.73 23.75 36.07 24.81 35.23 25.83C34.38 26.82 33.26 27.7 31.88 28.47C30.53 29.25 28.87 29.86 26.92 30.31C24.97 30.77 22.67 31 20.01 31L18.42 31C15.77 31 13.47 30.77 11.52 30.31C9.59 29.86 7.93 29.25 6.55 28.47C5.19 27.7 4.08 26.82 3.21 25.83C2.36 24.81 1.69 23.75 1.2 22.62C0.74 21.5 0.42 20.38 0.25 19.26C0.08 18.11 0 17.03 0 16.02L0 14.81C0 13.77 0.08 12.69 0.25 11.57C0.42 10.42 0.74 9.3 1.2 8.21C1.69 7.11 2.36 6.07 3.21 5.08C4.06 4.07 5.16 3.19 6.52 2.44C7.9 1.69 9.55 1.1 11.48 0.68C13.44 0.22 15.75 0 18.42 0L20.01 0ZM25.96 15.05C25.96 14.41 25.85 13.76 25.61 13.09C25.4 12.42 25.03 11.82 24.5 11.29C23.99 10.76 23.3 10.33 22.43 10.01C21.56 9.66 20.48 9.49 19.19 9.49C17.87 9.49 16.78 9.66 15.91 10.01C15.04 10.33 14.35 10.76 13.84 11.29C13.33 11.82 12.97 12.42 12.76 13.09C12.54 13.76 12.44 14.41 12.44 15.05L12.44 15.54C12.44 16.2 12.54 16.88 12.76 17.58C12.99 18.27 13.37 18.91 13.9 19.5C14.43 20.06 15.12 20.53 15.97 20.9C16.84 21.25 17.91 21.42 19.19 21.42C20.48 21.42 21.55 21.25 22.4 20.9C23.27 20.56 23.97 20.1 24.5 19.54C25.03 18.98 25.4 18.35 25.61 17.66C25.85 16.96 25.96 16.28 25.96 15.62L25.96 15.05Z" fill="#2B2929" fill-opacity="1.000000" fill-rule="nonzero"/>
		<path id="Vector" d="M55.79 31C52.48 31 49.77 30.54 47.65 29.63C45.53 28.7 43.85 27.51 42.62 26.07C41.41 24.6 40.57 22.98 40.1 21.22C39.64 19.43 39.4 17.68 39.4 15.98L39.4 14.77C39.4 12.88 39.67 11.05 40.2 9.29C40.73 7.5 41.67 5.92 43.03 4.56C44.41 3.17 46.27 2.06 48.6 1.24C50.96 0.41 53.96 0 57.61 0L58.63 0C61.43 0 63.82 0.2 65.82 0.6C67.81 0.97 69.49 1.48 70.85 2.12C72.21 2.73 73.29 3.45 74.09 4.28C74.9 5.11 75.52 5.96 75.94 6.84C76.39 7.7 76.67 8.57 76.8 9.45C76.93 10.3 76.99 11.09 76.99 11.81L76.99 11.85L64.64 11.85C64.6 11.66 64.49 11.41 64.32 11.09C64.17 10.77 63.88 10.46 63.43 10.17C63.01 9.85 62.39 9.58 61.59 9.37C60.8 9.13 59.75 9.01 58.44 9.01C57.25 9.01 56.24 9.17 55.41 9.49C54.58 9.78 53.91 10.19 53.38 10.73C52.84 11.26 52.45 11.9 52.2 12.65C51.96 13.4 51.85 14.23 51.85 15.13L51.85 15.5C51.85 16.43 51.96 17.31 52.2 18.14C52.43 18.94 52.8 19.65 53.31 20.26C53.84 20.85 54.51 21.32 55.32 21.66C56.14 22.01 57.15 22.18 58.34 22.18C59.51 22.18 60.47 22.09 61.24 21.9C62.02 21.69 62.64 21.45 63.08 21.18C63.55 20.89 63.87 20.6 64.04 20.3C64.23 20.01 64.32 19.75 64.32 19.54L57.93 19.54L57.93 13.45L77.15 13.45L77.15 30.39L69.03 30.39C68.93 29.97 68.74 29.43 68.46 28.79C68.19 28.15 67.9 27.64 67.6 27.27C67.41 27.48 67.07 27.8 66.58 28.23C66.12 28.63 65.45 29.05 64.58 29.47C63.73 29.87 62.66 30.22 61.36 30.51C60.07 30.83 58.49 31 56.62 31L55.79 31Z" fill="#2B2929" fill-opacity="1.000000" fill-rule="nonzero"/>
		<path id="Vector" d="M99.28 27.55C97.73 27.55 96.41 27.44 95.31 27.22C94.22 27.01 93.29 26.73 92.54 26.36C91.79 26 91.19 25.59 90.73 25.12C90.3 24.66 89.96 24.18 89.73 23.68C89.5 23.18 89.35 22.69 89.28 22.2C89.21 21.7 89.17 21.25 89.17 20.83L89.17 20.63L98.31 20.63C98.31 20.83 98.34 21.06 98.39 21.3C98.45 21.54 98.56 21.76 98.72 21.97C98.89 22.18 99.13 22.35 99.44 22.49C99.77 22.63 100.2 22.69 100.73 22.69C101.19 22.69 101.56 22.66 101.86 22.59C102.16 22.5 102.4 22.4 102.58 22.28C102.76 22.16 102.88 22.02 102.95 21.87C103.03 21.7 103.07 21.52 103.07 21.35L103.07 21.27C103.07 21.12 103.05 20.96 102.99 20.81C102.95 20.65 102.84 20.52 102.64 20.39C102.45 20.27 102.16 20.17 101.78 20.08C101.41 20 100.9 19.94 100.24 19.9L97.02 19.77C95.44 19.71 94.16 19.49 93.18 19.13C92.19 18.77 91.42 18.31 90.86 17.76C90.31 17.21 89.93 16.58 89.73 15.87C89.52 15.17 89.42 14.43 89.42 13.68L89.42 13.44C89.42 12.55 89.58 11.74 89.89 11.02C90.21 10.29 90.74 9.68 91.49 9.18C92.25 8.66 93.24 8.28 94.47 8.02C95.72 7.74 97.26 7.6 99.11 7.6L101.72 7.6C103.77 7.6 105.45 7.77 106.75 8.09C108.06 8.41 109.09 8.84 109.83 9.39C110.58 9.94 111.1 10.58 111.39 11.32C111.68 12.05 111.82 12.82 111.82 13.65L111.82 13.78L102.87 13.78C102.86 13.62 102.82 13.46 102.77 13.29C102.71 13.1 102.6 12.93 102.44 12.77C102.27 12.62 102.04 12.49 101.74 12.38C101.44 12.28 101.04 12.23 100.53 12.23C100.06 12.23 99.69 12.26 99.4 12.31C99.11 12.34 98.89 12.4 98.72 12.49C98.56 12.57 98.45 12.69 98.39 12.82C98.34 12.94 98.31 13.08 98.31 13.24L98.31 13.29C98.31 13.48 98.35 13.64 98.43 13.78C98.53 13.9 98.69 14.01 98.91 14.12C99.13 14.2 99.43 14.28 99.81 14.35C100.19 14.4 100.68 14.43 101.27 14.45L104.35 14.55C105.84 14.61 107.09 14.76 108.11 15.02C109.13 15.28 109.96 15.65 110.59 16.13C111.23 16.61 111.69 17.22 111.97 17.94C112.25 18.65 112.4 19.49 112.4 20.47L112.4 20.83C112.4 21.7 112.26 22.53 111.99 23.34C111.71 24.13 111.19 24.85 110.43 25.49C109.67 26.11 108.62 26.6 107.26 26.98C105.91 27.36 104.14 27.55 101.97 27.55L99.28 27.55Z" fill="#2B2929" fill-opacity="1.000000" fill-rule="nonzero"/>
		<path id="Vector" d="M119.01 14.55L112.42 14.55L112.42 7.94L133.41 7.94L133.41 14.55L126.81 14.55L126.81 27.16L119.01 27.16L119.01 14.55Z" fill="#2B2929" fill-opacity="1.000000" fill-rule="nonzero"/>
		<path id="Vector" d="M142.28 20.34L133.56 7.94L142.55 7.94L146.47 13.73L150.46 7.94L158.73 7.94L150.09 20.47L150.09 27.16L142.28 27.16L142.28 20.34Z" fill="#2B2929" fill-opacity="1.000000" fill-rule="nonzero"/>
		<path id="Vector" d="M166.83 7.94L166.83 20.32L177.42 20.32L177.42 27.16L159.03 27.16L159.03 7.94L166.83 7.94Z" fill="#2B2929" fill-opacity="1.000000" fill-rule="nonzero"/>
		<path id="Vector" d="M196.91 7.94L196.91 13.31L186.18 13.31L186.18 14.81L196.79 14.81L196.79 20.08L186.18 20.08L186.18 21.74L197 21.74L197 27.16L178.5 27.16L178.5 7.94L196.91 7.94Z" fill="#2B2929" fill-opacity="1.000000" fill-rule="nonzero"/>
	</g>
</svg>
